<svg width="20" height="21" viewBox="0 0 20 21" fill="none" xmlns="http://www.w3.org/2000/svg">
<path d="M15.8333 4.31596H14.1666V3.48263C14.1666 3.26161 14.0788 3.04965 13.9225 2.89337C13.7663 2.73709 13.5543 2.64929 13.3333 2.64929C13.1123 2.64929 12.9003 2.73709 12.744 2.89337C12.5878 3.04965 12.5 3.26161 12.5 3.48263V4.31596H7.49996V3.48263C7.49996 3.26161 7.41216 3.04965 7.25588 2.89337C7.0996 2.73709 6.88764 2.64929 6.66663 2.64929C6.44561 2.64929 6.23365 2.73709 6.07737 2.89337C5.92109 3.04965 5.83329 3.26161 5.83329 3.48263V4.31596H4.16663C3.50358 4.31596 2.8677 4.57935 2.39886 5.04819C1.93002 5.51703 1.66663 6.15292 1.66663 6.81596V16.816C1.66663 17.479 1.93002 18.1149 2.39886 18.5837C2.8677 19.0526 3.50358 19.316 4.16663 19.316H15.8333C16.4963 19.316 17.1322 19.0526 17.6011 18.5837C18.0699 18.1149 18.3333 17.479 18.3333 16.816V6.81596C18.3333 6.15292 18.0699 5.51703 17.6011 5.04819C17.1322 4.57935 16.4963 4.31596 15.8333 4.31596ZM16.6666 16.816C16.6666 17.037 16.5788 17.2489 16.4225 17.4052C16.2663 17.5615 16.0543 17.6493 15.8333 17.6493H4.16663C3.94561 17.6493 3.73365 17.5615 3.57737 17.4052C3.42109 17.2489 3.33329 17.037 3.33329 16.816V10.9826H16.6666V16.816ZM16.6666 9.31596H3.33329V6.81596C3.33329 6.59494 3.42109 6.38298 3.57737 6.2267C3.73365 6.07042 3.94561 5.98263 4.16663 5.98263H5.83329V6.81596C5.83329 7.03697 5.92109 7.24893 6.07737 7.40521C6.23365 7.56149 6.44561 7.64929 6.66663 7.64929C6.88764 7.64929 7.0996 7.56149 7.25588 7.40521C7.41216 7.24893 7.49996 7.03697 7.49996 6.81596V5.98263H12.5V6.81596C12.5 7.03697 12.5878 7.24893 12.744 7.40521C12.9003 7.56149 13.1123 7.64929 13.3333 7.64929C13.5543 7.64929 13.7663 7.56149 13.9225 7.40521C14.0788 7.24893 14.1666 7.03697 14.1666 6.81596V5.98263H15.8333C16.0543 5.98263 16.2663 6.07042 16.4225 6.2267C16.5788 6.38298 16.6666 6.59494 16.6666 6.81596V9.31596Z" fill="#006837"/>
</svg>
